<svg width="250" height="250" viewBox="0 0 250 250" fill="none" xmlns="http://www.w3.org/2000/svg">
<path fill-rule="evenodd" clip-rule="evenodd" d="M125 250C194.036 250 250 194.036 250 125C250 55.9644 194.036 0 125 0C55.9644 0 0 55.9644 0 125C0 194.036 55.9644 250 125 250ZM125 230C182.99 230 230 182.99 230 125C230 67.0101 182.99 20 125 20C67.0101 20 20 67.0101 20 125C20 182.99 67.0101 230 125 230Z" fill="#203568"/>
<path d="M110 64.5C110 56.4919 116.492 50 124.5 50C132.508 50 139 56.4919 139 64.5V185.5C139 193.508 132.508 200 124.5 200C116.492 200 110 193.508 110 185.5V64.5Z" fill="#203568"/>
<path d="M73 85.5C73 77.4919 79.4919 71 87.5 71C95.5081 71 102 77.4919 102 85.5V163.5C102 171.508 95.5081 178 87.5 178C79.4919 178 73 171.508 73 163.5V85.5Z" fill="#203568"/>
<path d="M148 85C148 77.268 154.268 71 162 71C169.732 71 176 77.268 176 85V164C176 171.732 169.732 178 162 178C154.268 178 148 171.732 148 164V85Z" fill="#203568"/>
<path d="M36 101C36 93.268 42.268 87 50 87C57.732 87 64 93.268 64 101V149C64 156.732 57.732 163 50 163C42.268 163 36 156.732 36 149V101Z" fill="#203568"/>
<path d="M186 101C186 93.268 192.268 87 200 87C207.732 87 214 93.268 214 101V149C214 156.732 207.732 163 200 163C192.268 163 186 156.732 186 149V101Z" fill="#203568"/>
</svg>
